<?xml version="1.0" encoding="UTF-8"?>
<svg width="13px" height="14px" viewBox="0 0 13 14" version="1.1" xmlns="http://www.w3.org/2000/svg" xmlns:xlink="http://www.w3.org/1999/xlink">
    <title>single-neutral-actions-refresh</title>
    <g id="Pages" stroke="none" stroke-width="1" fill="none" fill-rule="evenodd">
        <g id="Detail-Page" transform="translate(-1019.000000, -389.000000)" fill="#3852F7">
            <g id="Copy-Block-1" transform="translate(905.000000, 216.500000)">
                <text id="Sort-by-latest" stroke="#979797" font-family="Helvetica" font-size="13" font-weight="normal" line-spacing="13" letter-spacing="0.5">
                    <tspan x="0" y="186">SORT BY LATEST</tspan>
                </text>
                <g id="single-neutral-actions-refresh" transform="translate(114.000000, 173.000000)" fill-rule="nonzero">
                    <path d="M12.391,8.871 C12.5110933,8.53189543 12.4397889,8.15441838 12.2042727,7.88248747 C11.9687565,7.61055656 11.6053285,7.48608439 11.2525509,7.55652778 C10.8997733,7.62697117 10.6120195,7.88147272 10.499,8.223 C10.0321513,9.59908532 8.87038149,10.6242537 7.44689784,10.9162345 C6.02341418,11.2082153 4.55187648,10.7231833 3.581,9.642 C3.49114135,9.54330352 3.49466317,9.39142528 3.589,9.297 L5.311,7.576 C5.4536611,7.43289197 5.49615925,7.21798159 5.41870439,7.03134601 C5.34124953,6.84471042 5.15906953,6.723 4.957,6.723 L0.5,6.723 C0.223857625,6.723 0,6.94685763 0,7.223 L0,11.68 C0,11.8823268 0.122016618,12.0646856 0.308999339,12.1419747 C0.495982059,12.2192638 0.711114285,12.1762474 0.854,12.033 L1.823,11.064 C1.86994658,11.0151684 1.93476151,10.987571 2.0025,10.987571 C2.07023849,10.987571 2.13505342,11.0151684 2.182,11.064 C3.64303038,12.6277743 5.8181317,13.3090841 7.91019999,12.8582514 C10.0022683,12.4074188 11.7037092,10.8907292 12.391,8.864 L12.391,8.871 Z" id="Path"></path>
                    <path d="M13,1.234 C13,1.03167318 12.8779834,0.849314423 12.6910007,0.772025312 C12.5040179,0.694736202 12.2888857,0.737752603 12.146,0.881 L11.121,1.906 C11.0740862,1.95451577 11.0094884,1.98191043 10.942,1.98191043 C10.8745116,1.98191043 10.8099138,1.95451577 10.763,1.906 C9.29383026,0.356323539 7.12127179,-0.312277278 5.03501277,0.143222609 C2.94875375,0.598722496 1.25257168,2.11199833 0.563,4.133 C0.384059741,4.65573752 0.662762484,5.22455974 1.1855,5.4035 C1.70823752,5.58244026 2.27705974,5.30373752 2.456,4.781 C2.92036768,3.40893522 4.07551473,2.38461137 5.49327524,2.08770355 C6.91103574,1.79079574 8.38012063,2.26555218 9.356,3.336 C9.44689522,3.43490517 9.44381006,3.58784105 9.349,3.683 L7.689,5.342 C7.5463389,5.48510803 7.50384075,5.70001841 7.58129561,5.88665399 C7.65875047,6.07328958 7.84093047,6.195 8.043,6.195 L12.5,6.195 C12.7761424,6.195 13,5.97114237 13,5.695 L13,1.234 Z" id="Path"></path>
                </g>
            </g>
        </g>
    </g>
</svg>